<?xml version="1.0" encoding="utf-8"?>
<!-- Generator: Adobe Illustrator 16.0.0, SVG Export Plug-In . SVG Version: 6.00 Build 0)  -->
<!DOCTYPE svg PUBLIC "-//W3C//DTD SVG 1.1//EN" "http://www.w3.org/Graphics/SVG/1.1/DTD/svg11.dtd">
<svg version="1.1" id="Layer_1" xmlns="http://www.w3.org/2000/svg" xmlns:xlink="http://www.w3.org/1999/xlink" x="0px" y="0px"
	 width="512px" height="512px" viewBox="0 0 512 512" enable-background="new 0 0 512 512" xml:space="preserve">
<g style="fill:#C60;">
	<path d="M496,0h-80c-7.719,0-14.344,5.531-15.75,13.125L391,64H16c-5.344,0-10.344,2.688-13.313,7.125s-3.516,10.094-1.453,15.031
		l80,192C83.719,284.125,89.547,288,96,288h254.281l-11.625,64H128c-8.844,0-16,7.156-16,16s7.156,16,16,16h224
		c7.719,0,14.344-5.531,15.75-13.125L429.344,32H496c8.844,0,16-7.156,16-16S504.844,0,496,0z M385.188,96l-11.625,64H288V96
		H385.188z M256,96v64h-64V96H256z M160,96v64H66.672L40,96H160z M106.672,256L80,192h80v64H106.672z M192,256v-64h64v64H192z
		 M288,256v-64h79.75l-11.656,64H288z"/>
	<path d="M176,416c-26.5,0-48,21.469-48,48s21.5,48,48,48s48-21.469,48-48S202.5,416,176,416z"/>
	<path d="M304,416c-26.531,0-48,21.469-48,48s21.469,48,48,48s48-21.469,48-48S330.531,416,304,416z"/>
</g>
</svg>
